<svg xmlns="http://www.w3.org/2000/svg" xmlns:xlink="http://www.w3.org/1999/xlink" width="20" height="20" viewBox="0 0 20 20">
  <defs>
    <clipPath id="clip-Locais_de_interesse_linha">
      <rect width="20" height="20"/>
    </clipPath>
  </defs>
  <g id="Locais_de_interesse_linha" data-name="Locais de interesse linha" clip-path="url(#clip-Locais_de_interesse_linha)">
    <rect width="20" height="20" fill="#fff"/>
    <g id="Grupo_1040" data-name="Grupo 1040">
      <g id="Grupo_983" data-name="Grupo 983" transform="translate(-23.09 -1042.859)">
        <path id="Caminho_1054" data-name="Caminho 1054" d="M12.124,1a8.133,8.133,0,0,1,8.124,8.124A9.339,9.339,0,0,1,19,13.585,17.58,17.58,0,0,1,16.3,17.2a25.314,25.314,0,0,1-3.9,3.355.5.5,0,0,1-.555,0,25.314,25.314,0,0,1-3.9-3.355,17.58,17.58,0,0,1-2.7-3.612A9.339,9.339,0,0,1,4,9.124,8.133,8.133,0,0,1,12.124,1Zm0,18.525a25.426,25.426,0,0,0,3.463-3.03c1.67-1.766,3.661-4.479,3.661-7.371A7.124,7.124,0,1,0,5,9.124c0,2.893,1.991,5.605,3.661,7.371A25.425,25.425,0,0,0,12.124,19.525Z" transform="translate(21 1042)" fill="#b24c5a"/>
        <g id="Grupo_965" data-name="Grupo 965" transform="translate(28.55 1046.55)">
          <path id="Caminho_1032" data-name="Caminho 1032" d="M14.493,20.582a1.305,1.305,0,1,1-1.305-1.305,1.305,1.305,0,0,1,1.305,1.305" transform="translate(-8.6 -9.64)" fill="#b24c5a"/>
          <path id="Caminho_1033" data-name="Caminho 1033" d="M16.466,16.821a1.305,1.305,0,1,1-1.305-1.305,1.305,1.305,0,0,1,1.305,1.305" transform="translate(-8.947 -8.49)" fill="#b24c5a"/>
          <path id="Caminho_1034" data-name="Caminho 1034" d="M12.363,16.821a1.305,1.305,0,1,1-1.305-1.305,1.305,1.305,0,0,1,1.305,1.305" transform="translate(-8.225 -8.49)" fill="#b24c5a"/>
          <path id="Caminho_1035" data-name="Caminho 1035" d="M14.415,13.393a1.305,1.305,0,1,1-1.305-1.305,1.305,1.305,0,0,1,1.305,1.305" transform="translate(-8.586 -8.016)" fill="#b24c5a"/>
          <path id="Caminho_1036" data-name="Caminho 1036" d="M18.414,13.393a1.305,1.305,0,1,1-1.305-1.305,1.305,1.305,0,0,1,1.305,1.305" transform="translate(-9.349 -8.016)" fill="#b24c5a"/>
          <path id="Caminho_1037" data-name="Caminho 1037" d="M10.311,13.393a1.305,1.305,0,1,1-1.305-1.305,1.305,1.305,0,0,1,1.305,1.305" transform="translate(-7.7 -8.016)" fill="#b24c5a"/>
          <path id="Caminho_1038" data-name="Caminho 1038" d="M14.692,9.71h0a.26.26,0,0,0,.333-.167,3.506,3.506,0,0,1,2.36-2.307.448.448,0,0,0,.306-.57.443.443,0,0,0-.6-.267,4.676,4.676,0,0,0-2.563,3,.258.258,0,0,0,.166.314" transform="translate(-9.608 -6.36)" fill="#b24c5a"/>
        </g>
      </g>
      <rect id="Retângulo_572" data-name="Retângulo 572" width="20" height="20" fill="none"/>
    </g>
  </g>
</svg>
