<svg xmlns="http://www.w3.org/2000/svg" xmlns:xlink="http://www.w3.org/1999/xlink" width="20" height="20" viewBox="0 0 20 20">
  <defs>
    <clipPath id="clip-As_minhas_Rotas_linha">
      <rect width="20" height="20"/>
    </clipPath>
  </defs>
  <g id="As_minhas_Rotas_linha" data-name="As minhas Rotas linha" clip-path="url(#clip-As_minhas_Rotas_linha)">
    <rect width="20" height="20" fill="none"/>
    <g id="Grupo_996" data-name="Grupo 996" transform="translate(0 6)">
      <path id="Icon_awesome-route" data-name="Icon awesome-route" d="M15.2,19.106H4.682l.414-.622c.076-.114.607-.833.917-1.252.857-1.157.857-1.157.93-1.2l.1-.062H15.2a.769.769,0,1,0,0-1.538H11.691a3.907,3.907,0,0,1,0-7.815h.9a6.448,6.448,0,0,1-1.3-3.107,3.907,3.907,0,1,1,7.815,0c0,.889-.615,2.195-1.829,3.882C16.4,8.613,15.533,9.58,15.5,9.62l-.119.133H11.691a.769.769,0,0,0,0,1.538H15.2a3.907,3.907,0,1,1,0,7.815Zm-8.984-.8H15.2a3.107,3.107,0,1,0,0-6.215H11.691a1.569,1.569,0,1,1,0-3.138h3.327c1.018-1.16,3.287-4.041,3.287-5.446a3.107,3.107,0,1,0-6.215,0c0,.476.274,1.432,1.581,3.276l.447.631H11.691a3.107,3.107,0,0,0,0,6.215H15.2a1.569,1.569,0,1,1,0,3.138H7.356C7.128,17.073,6.6,17.781,6.215,18.306Zm-2.708.757-.29-.3a26.829,26.829,0,0,1-1.783-2.12C.217,15.023-.4,13.752-.4,12.86a3.907,3.907,0,1,1,7.815,0c0,.892-.617,2.163-1.834,3.778A26.831,26.831,0,0,1,3.8,18.759Zm0-9.31A3.111,3.111,0,0,0,.4,12.86c0,1.325,2.03,3.842,3.107,5.034C4.585,16.7,6.615,14.185,6.615,12.86A3.111,3.111,0,0,0,3.507,9.753Zm0,4.677A1.569,1.569,0,1,1,5.077,12.86,1.571,1.571,0,0,1,3.507,14.43Zm0-2.338a.769.769,0,1,0,.769.769A.77.77,0,0,0,3.507,12.091ZM15.2,5.077a1.569,1.569,0,1,1,1.569-1.569A1.571,1.571,0,0,1,15.2,5.077Zm0-2.338a.769.769,0,1,0,.769.769A.77.77,0,0,0,15.2,2.738Z" transform="translate(0.5 -5.5)" fill="#fff"/>
      <rect id="Retângulo_573" data-name="Retângulo 573" width="20" height="20" transform="translate(0 -6)" fill="none"/>
    </g>
  </g>
</svg>
